<?xml version="1.0" standalone="no"?>
<!DOCTYPE svg PUBLIC "-//W3C//DTD SVG 20010904//EN"
 "http://www.w3.org/TR/2001/REC-SVG-20010904/DTD/svg10.dtd">
<svg version="1.0" xmlns="http://www.w3.org/2000/svg"
 width="512.000000pt" height="512.000000pt" viewBox="0 0 512.000000 512.000000"
 preserveAspectRatio="xMidYMid meet">
<metadata>
Created by potrace 1.14, written by Peter Selinger 2001-2017
</metadata>
<g transform="translate(0.000000,512.000000) scale(0.100000,-0.100000)"
fill="#000000" stroke="none">
<path d="M2209 4066 c-2 -2 -26 -6 -54 -10 -73 -8 -199 -42 -288 -77 -331
-130 -587 -392 -726 -741 -17 -42 -33 -89 -35 -102 -3 -14 -7 -29 -10 -34 -11
-18 -47 -217 -53 -295 -7 -88 -7 -250 0 -332 9 -107 20 -181 29 -197 5 -10 7
-18 4 -18 -6 0 29 -130 56 -205 40 -113 150 -319 194 -362 8 -8 14 -18 14 -22
0 -18 192 -205 265 -256 67 -48 295 -172 295 -160 0 2 26 -6 58 -17 57 -20 76
-25 122 -33 14 -2 34 -6 45 -8 100 -23 393 -24 465 -2 8 2 31 7 50 10 206 34
428 152 590 315 94 93 114 117 149 173 12 20 24 37 25 37 2 0 3 -93 4 -207 0
-115 0 -229 1 -254 l1 -47 235 1 235 1 -2 1400 -3 1401 -225 1 c-124 0 -229
-1 -235 -3 -6 -2 -10 -91 -9 -243 1 -132 -2 -242 -5 -244 -4 -3 -17 15 -30 40
-13 24 -28 44 -32 44 -5 0 -9 5 -9 12 0 6 -39 50 -87 97 -87 85 -216 178 -303
218 -108 49 -127 57 -175 70 -132 37 -244 51 -406 52 -80 0 -148 -1 -150 -3z
m381 -410 c123 -14 243 -57 379 -137 66 -38 171 -138 232 -219 45 -60 145
-240 133 -240 -2 0 0 -9 6 -21 6 -11 13 -28 16 -37 17 -73 35 -161 40 -205 9
-70 9 -281 0 -337 -4 -25 -9 -62 -12 -83 -3 -20 -11 -55 -19 -77 -8 -22 -14
-44 -15 -48 -2 -37 -74 -190 -123 -262 -85 -123 -156 -188 -312 -288 -30 -18
-109 -53 -133 -58 -8 -1 -21 -6 -30 -10 -9 -4 -19 -8 -22 -9 -15 -4 -69 -15
-95 -20 -16 -3 -41 -7 -55 -10 -35 -7 -196 -7 -250 0 -209 29 -389 119 -530
266 -73 76 -75 78 -112 135 -71 109 -138 283 -153 394 -3 25 -9 54 -12 65 -7
24 -13 277 -6 288 3 4 6 31 8 60 4 45 9 82 19 122 14 57 20 77 36 120 34 94
69 161 126 241 201 282 513 412 884 370z"/>
</g>
</svg>
